<svg xmlns="http://www.w3.org/2000/svg" width="12" height="12" viewBox="0 0 12 12" fill="currentColor">
  <path
    d="M10.75,0.5 C11.1642136,0.5 11.5,0.835786438 11.5,1.25 L11.5,5 C11.5,5.41421356 11.1642136,5.75 10.75,5.75 C10.3357864,5.75 10,5.41421356 10,5 L10,3.06 L7.79833009,5.26233009 C7.50543687,5.5552233 7.03056313,5.5552233 6.73766991,5.26233009 C6.4447767,4.96943687 6.4447767,4.49456313 6.73766991,4.20166991 L8.938,2 L7,2 C6.62030423,2 6.30650904,1.71784612 6.25684662,1.35177056 L6.25,1.25 C6.25,0.835786438 6.58578644,0.5 7,0.5 L10.75,0.5 Z"
  />
  <path
    d="M1.25,6.25 C1.66421356,6.25 2,6.58578644 2,7 L2,8.938 L4.20166991,6.73766991 C4.49456313,6.4447767 4.96943687,6.4447767 5.26233009,6.73766991 C5.5552233,7.03056313 5.5552233,7.50543687 5.26233009,7.79833009 L3.06,10 L5,10 C5.37969577,10 5.69349096,10.2821539 5.74315338,10.6482294 L5.75,10.75 C5.75,11.1642136 5.41421356,11.5 5,11.5 L1.25,11.5 C0.835786438,11.5 0.5,11.1642136 0.5,10.75 L0.5,7 C0.5,6.58578644 0.835786438,6.25 1.25,6.25 Z"
  />
</svg>
