<svg xmlns="http://www.w3.org/2000/svg" width="12" height="12" viewBox="0 0 12 12" fill="currentColor">
  <path
    d="M8.228179 3.73584846 9.5 5.00782311 10.771821 3.73584846C11.0527839 3.45488553 11.5083149 3.45488553 11.7892778 3.73584846 12.0702407 4.0168114 12.0702407 4.47234233 11.7892778 4.75330526L10.5173032 6.02512626 11.7892778 7.29694726C12.0702407 7.5779102 12.0702407 8.03344112 11.7892778 8.31440406 11.5083149 8.59536699 11.0527839 8.59536699 10.771821 8.31440406L9.5 7.04242941 8.228179 8.31440406C7.94721606 8.59536699 7.49168514 8.59536699 7.2107222 8.31440406 6.92975927 8.03344112 6.92975927 7.5779102 7.2107222 7.29694726L8.4819774 6.02512626 7.2107222 4.75330526C6.92975927 4.47234233 6.92975927 4.0168114 7.2107222 3.73584846 7.49168514 3.45488553 7.94721606 3.45488553 8.228179 3.73584846ZM2.5 4 .5 4C.214285715 4 3.55271368e-15 4.17770752 3.55271368e-15 4.5L3.55271368e-15 7.5C3.55271368e-15 7.82229242.166666664 8 .452380949 8L2.5 8 5.23809524 10.9157087C5.57142857 11.1305704 6 10.9157087 6 10.4859854L6 1.53725661C6 1.10753333 5.57142857.838956275 5.23809524 1.10753333L2.5 4Z"
  />
</svg>
