<svg xmlns="http://www.w3.org/2000/svg" width="12" height="12" viewBox="0 0 12 12" fill="currentColor">
  <path
    d="M10.2857142,2.2 C9.99999989,1.93333333 9.5714284,1.93333333 9.28571413,2.2 C8.99999983,2.46666667 8.99999983,2.86666667 9.28571413,3.13333333 C10.142857,3.93333333 10.5714284,4.93333333 10.5714284,6 C10.5714284,7.06666667 10.142857,8.06666667 9.28571413,8.86666667 C8.99999983,9.13333333 8.99999983,9.53333333 9.28571413,9.8 C9.42857128,9.93333333 9.64285701,10 9.78571416,10 C9.99999989,10 10.142857,9.93333333 10.2857142,9.8 C11.3571428,8.8 12,7.46666667 12,6 C12,4.53333333 11.3571428,3.2 10.2857142,2.2 L10.2857142,2.2 Z"
  />
  <path
    d="M7.20141037 3.52131633C6.93286321 3.77196031 6.93286321 4.14792629 7.20141037 4.39857028 7.72653847 4.88868985 7.91235391 5.37070299 7.91235391 6 7.91235391 6.62392308 7.60834146 7.27813427 7.20141037 7.6579366 6.93286321 7.9085806 6.93286321 8.2845466 7.20141037 8.5351906 7.3051173 8.63198367 7.65548032 8.70996853 7.92843927 8.63950433 8.00889141 8.61873567 8.08261928 8.58507087 8.14132542 8.5351906 8.9809794 7.82176933 9.23651163 6.77319427 9.23660898 6 9.23660898 5.886637 9.23473663 5.77343765 9.22833227 5.6598286 9.19105591 4.99856631 9.00072661 4.32342409 8.14132535 3.52131633 7.87277819 3.27067233 7.46995753 3.27067233 7.20141037 3.52131633ZM2.5 4 .5 4C.214285715 4 3.55271368e-15 4.17770752 3.55271368e-15 4.5L3.55271368e-15 7.5C3.55271368e-15 7.82229242.166666664 8 .452380949 8L2.5 8 5.23809524 10.9157087C5.57142857 11.1305704 6 10.9157087 6 10.4859854L6 1.53725661C6 1.10753333 5.57142857.838956275 5.23809524 1.10753333L2.5 4Z"
  />
</svg>
