<svg xmlns="http://www.w3.org/2000/svg" width="12" height="12" viewBox="0 0 12 12" fill="currentColor">
  <path
    d="M7.268,0.232 C7.68221356,0.232 8.018,0.567786438 8.018,0.982 L8.017,2.921 L10.2196699,0.719669914 C10.5125631,0.426776695 10.9874369,0.426776695 11.2803301,0.719669914 C11.5732233,1.01256313 11.5732233,1.48743687 11.2803301,1.78033009 L9.078,3.982 L11.018,3.982 C11.3976958,3.982 11.711491,4.26415388 11.7611534,4.63022944 L11.768,4.732 C11.768,5.14621356 11.4322136,5.482 11.018,5.482 L7.268,5.482 C6.85378644,5.482 6.518,5.14621356 6.518,4.732 L6.518,0.982 C6.518,0.567786438 6.85378644,0.232 7.268,0.232 Z"
  />
  <path
    d="M4.732,6.518 C5.14621356,6.518 5.482,6.85378644 5.482,7.268 L5.482,11.018 C5.482,11.4322136 5.14621356,11.768 4.732,11.768 C4.31778644,11.768 3.982,11.4322136 3.982,11.018 L3.982,9.078 L1.78033009,11.2803301 C1.48743687,11.5732233 1.01256313,11.5732233 0.719669914,11.2803301 C0.426776695,10.9874369 0.426776695,10.5125631 0.719669914,10.2196699 L2.921,8.017 L0.982,8.018 C0.602304234,8.018 0.288509039,7.73584612 0.238846616,7.36977056 L0.232,7.268 C0.232,6.85378644 0.567786438,6.518 0.982,6.518 L4.732,6.518 Z"
  />
</svg>
