<svg xmlns="http://www.w3.org/2000/svg" width="12" height="12" viewBox="0 0 12 12" fill="currentColor">
  <path
    d="M1.5,1.5 C1.5,0.94771525 1.94771525,0.5 2.5,0.5 L4,0.5 C4.55228475,0.5 5,0.94771525 5,1.5 L5,10.5 C5,11.0522847 4.55228475,11.5 4,11.5 L2.5,11.5 C1.94771525,11.5 1.5,11.0522847 1.5,10.5 L1.5,1.5 Z M7,1.5 C7,0.94771525 7.44771525,0.5 8,0.5 L9.5,0.5 C10.0522847,0.5 10.5,0.94771525 10.5,1.5 L10.5,10.5 C10.5,11.0522847 10.0522847,11.5 9.5,11.5 L8,11.5 C7.44771525,11.5 7,11.0522847 7,10.5 L7,1.5 Z"
  />
</svg>
