<svg xmlns="http://www.w3.org/2000/svg" width="18" height="18" viewBox="0 0 18 18">
  <path
    d="M12.7535534 12.1464466 14.5 10.4 14.5 10.4 16.2464466 12.1464466C16.4417088 12.3417088 16.7582912 12.3417088 16.9535534 12.1464466L17.6464466 11.4535534C17.8417088 11.2582912 17.8417088 10.9417088 17.6464466 10.7464466L15.9 9 15.9 9 17.6464466 7.25355339C17.8417088 7.05829124 17.8417088 6.74170876 17.6464466 6.54644661L16.9535534 5.85355339C16.7582912 5.65829124 16.4417088 5.65829124 16.2464466 5.85355339L14.5 7.6 14.5 7.6 12.7535534 5.85355339C12.5582912 5.65829124 12.2417088 5.65829124 12.0464466 5.85355339L11.3535534 6.54644661C11.1582912 6.74170876 11.1582912 7.05829124 11.3535534 7.25355339L13.1 9 13.1 9 11.3535534 10.7464466C11.1582912 10.9417088 11.1582912 11.2582912 11.3535534 11.4535534L12.0464466 12.1464466C12.2417088 12.3417088 12.5582912 12.3417088 12.7535534 12.1464466ZM3.78571429 6.00820648.714285714 6.00820648C.285714286 6.00820648 0 6.30901277 0 6.76022222L0 11.2723167C0 11.7235261.285714286 12.0243324.714285714 12.0243324L3.78571429 12.0243324 7.85714286 15.8819922C8.35714286 16.1827985 9 15.8819922 9 15.2803796L9 2.75215925C9 2.15054666 8.35714286 1.77453879 7.85714286 2.15054666L3.78571429 6.00820648Z"
    fill="currentColor"
  />
</svg>
